<?xml version="1.0" encoding="UTF-8" standalone="no"?>
<svg
   xmlns:dc="http://purl.org/dc/elements/1.1/"
   xmlns:cc="http://creativecommons.org/ns#"
   xmlns:rdf="http://www.w3.org/1999/02/22-rdf-syntax-ns#"
   xmlns:svg="http://www.w3.org/2000/svg"
   xmlns="http://www.w3.org/2000/svg"
   xmlns:sodipodi="http://sodipodi.sourceforge.net/DTD/sodipodi-0.dtd"
   xmlns:inkscape="http://www.inkscape.org/namespaces/inkscape"
   height="16"
   viewBox="0 0 12 12"
   width="16"
   version="1.1"
   id="svg42"
   sodipodi:docname="logo2.svg"
   inkscape:version="0.92.4 (5da689c313, 2019-01-14)">
  <metadata
     id="metadata48">
    <rdf:RDF>
      <cc:Work
         rdf:about="">
        <dc:format>image/svg+xml</dc:format>
        <dc:type
           rdf:resource="http://purl.org/dc/dcmitype/StillImage" />
        <dc:title></dc:title>
      </cc:Work>
    </rdf:RDF>
  </metadata>
  <defs
     id="defs46" />
  <sodipodi:namedview
     pagecolor="#ffffff"
     bordercolor="#666666"
     borderopacity="1"
     objecttolerance="10"
     gridtolerance="10"
     guidetolerance="10"
     inkscape:pageopacity="0"
     inkscape:pageshadow="2"
     inkscape:window-width="1796"
     inkscape:window-height="1011"
     id="namedview44"
     showgrid="false"
     inkscape:zoom="22.125"
     inkscape:cx="17.327162"
     inkscape:cy="6.1590173"
     inkscape:window-x="124"
     inkscape:window-y="35"
     inkscape:window-maximized="1"
     inkscape:current-layer="svg42"
     units="px" />
  <path
     d="M 12,9.2548143 C 10.514786,10.941335 8.373481,12 5.992878,12 3.61983,12 1.484595,10.94786 0,9.2708081 l 0.358577,-1.9518908 0.509935,-2.776022 5.124366,0.020984 v 0.200115 l 0.01709,-0.200115 5.124366,-0.020984 0.506095,2.7547824 z m 0,0"
     id="path8"
     inkscape:connector-curvature="0"
     style="fill:#474f6f;stroke-width:0.03222763" />
  <path
     d="M 12,9.2548143 C 10.514786,10.941335 8.373481,12 5.992878,12 V 4.7639944 l 0.01709,-0.200115 5.124366,-0.020984 z m 0,0"
     id="path10"
     inkscape:connector-curvature="0"
     style="fill:#313b5a;stroke-width:0.03222763" />
  <path
     d="m 11.134337,4.5428953 -5.124366,0.020984 -0.01709,0.200115 V 4.5638793 L 0.868515,4.5428953 0.35858,7.3189173 c 0.674174,1.0177215 1.807995,1.6869043 3.090697,1.6869043 h 0.04187 c 0.06366,0 0.115686,0.02623 0.154083,0.055659 0.498167,0.8444757 1.381171,1.3610134 2.347656,1.3610134 0.966485,0 1.849488,-0.5169216 2.347656,-1.3610134 0.0384,-0.029429 0.09042,-0.055659 0.154083,-0.055659 h 0.04187 c 1.14212,0 2.206331,-0.5283089 2.920017,-1.4498113 0.06503,-0.083808 0.126214,-0.1703024 0.183933,-0.2583326 z m 0,0"
     id="path12"
     inkscape:connector-curvature="0"
     style="fill:#323b5a;stroke-width:0.03222763" />
  <path
     d="m 11.640432,7.2976777 c -0.05772,0.08803 -0.118906,0.1745249 -0.183933,0.2583326 -0.713686,0.9215024 -1.777897,1.4498113 -2.920017,1.4498113 h -0.04187 c -0.06366,0 -0.115686,0.02623 -0.154083,0.055659 C 7.842361,9.9055721 6.959358,10.422494 5.992873,10.422494 V 4.7639944 l 0.01709,-0.200115 5.124366,-0.020984 z m 0,0"
     id="path14"
     inkscape:connector-curvature="0"
     style="fill:#20273a;stroke-width:0.03222763" />
  <path
     d="m 4.740398,1.822532 c 0,1.0065895 -0.78986,1.8225323 -1.764272,1.8225323 -0.884985,0 -1.618365,-0.6737895 -1.74495,-1.5516604 C 1.218546,2.0049899 1.211856,1.9146566 1.211856,1.822532 1.211856,0.81594247 2.002088,0 2.976129,0 3.193381,0 3.401343,0.04068813 3.593451,0.11502787 4.263537,0.37348846 4.740401,1.0403685 4.740401,1.822532 Z m 0,0"
     id="path16"
     inkscape:connector-curvature="0"
     style="fill:#474f6f;stroke-width:0.03222763" />
  <path
     d="M 3.593448,0.11502787 C 3.138136,0.32461114 2.707844,0.59394784 2.3157,0.91791927 1.903492,1.2587804 1.538846,1.6551724 1.231176,2.0934039 c 0.126585,0.8778709 0.859965,1.5516604 1.74495,1.5516604 0.974412,0 1.764272,-0.8159428 1.764272,-1.8225323 0,-0.7821635 -0.476864,-1.44904354 -1.14695,-1.70750413 z m 0,0"
     id="path18"
     inkscape:connector-curvature="0"
     style="fill:#323b5a;stroke-width:0.03222763" />
  <path
     d="m 10.773903,1.822532 c 0,0.092125 -0.0067,0.1824578 -0.01932,0.2708719 -0.126585,0.8778709 -0.859965,1.5516604 -1.74495,1.5516604 -0.974412,0 -1.764272,-0.8159428 -1.764272,-1.8225323 0,-0.7821635 0.476864,-1.44904354 1.14695,-1.70750413 C 8.584416,0.04068813 8.792378,0 9.00963,0 c 0.974041,0 1.764273,0.81594247 1.764273,1.822532 z m 0,0"
     id="path20"
     inkscape:connector-curvature="0"
     style="fill:#323b5a;stroke-width:0.03222763" />
  <path
     d="M 9.670056,0.91817542 C 9.277912,0.59394784 8.84762,0.32461114 8.392308,0.11502787 7.722222,0.37348846 7.245358,1.0403685 7.245358,1.822532 c 0,1.0065895 0.78986,1.8225323 1.764272,1.8225323 0.884985,0 1.618365,-0.6737895 1.74495,-1.5516604 C 10.44691,1.6551724 10.082264,1.2587804 9.670056,0.91817542 Z m 0,0"
     id="path22"
     inkscape:connector-curvature="0"
     style="fill:#20273a;stroke-width:0.03222763" />
  <path
     d="m 8.536482,7.8757595 h -0.04187 c -0.453083,0 -0.869378,0.2385004 -1.129362,0.6219692 C 7.12174,8.8571428 6.718325,9.0883499 6.268092,9.0883499 H 5.717654 c -0.450233,0 -0.853648,-0.2312071 -1.097158,-0.5906212 C 4.360512,8.1142599 3.944216,7.8757595 3.491134,7.8757595 h -0.04187 c -1.492894,0 -2.646409,-1.2594204 -2.646409,-2.7268889 0,-0.1990913 0.02118,-0.4018936 0.06565,-0.6059753 C 1.138273,3.3050987 1.805511,2.2464333 2.712048,1.4972808 3.618584,0.7481286 4.764544,0.30861733 5.992871,0.30861733 c 2.456406,0 4.584705,1.75868477 5.124366,4.23427797 0.372326,1.7085281 -0.885232,3.3328642 -2.580762,3.3328642 z m 0,0"
     id="path24"
     style="fill:#ffffff;stroke:#000000;stroke-width:0.03222763;stroke-opacity:1"
     inkscape:connector-curvature="0" />
  <g
     id="g38"
     style="fill:#20273a;fill-opacity:1"
     transform="matrix(0.03170835,0,0,0.03275542,-2.124459,-4.7707758)">
    <path
       d="m 275.10937,360.50781 c 5.95704,-5.24609 2.2461,-15.07422 -5.6875,-15.07422 h -26.84375 c -7.9375,0 -11.64453,9.82813 -5.6875,15.07422 10.92579,9.61328 27.29297,9.61328 38.21875,0 z m 0,0"
       id="path32"
       style="fill:#20273a;fill-opacity:1"
       inkscape:connector-curvature="0" />
    <path
       d="m 281.49219,400.32422 c -1.00782,0 -2.03125,-0.21875 -3.00391,-0.67969 L 256,388.9375 233.51172,399.64453 c -3.49219,1.66016 -7.66797,0.17969 -9.32813,-3.30859 -1.66406,-3.49219 -0.17968,-7.67188 3.3086,-9.33203 l 25.5,-12.14063 c 1.90234,-0.90625 4.11328,-0.90625 6.01953,0 l 25.49609,12.14063 c 3.49219,1.66015 4.97266,5.83984 3.3125,9.33203 -1.20312,2.51562 -3.71094,3.98828 -6.32812,3.98828 z m 0,0"
       id="path34"
       style="fill:#20273a;fill-opacity:1"
       inkscape:connector-curvature="0" />
    <path
       d="m 198.25781,345.18359 h -6.1289 c -18.42188,0 -30.125,-19.71875 -21.30469,-35.89062 l 11.64062,-21.34766 c 4.25391,-7.79687 12.42578,-12.64844 21.3086,-12.64844 15.86718,0 27.46484,14.97657 23.49609,30.33985 l -5.51172,21.34765 c -2.76953,10.71485 -12.43359,18.19922 -23.5,18.19922 z m 0,0"
       id="path36"
       style="fill:#20273a;fill-opacity:1"
       inkscape:connector-curvature="0" />
  </g>
  <path
     d="m 7.823788,6.535858 h 0.194337 c 0.584127,0 0.955214,-0.6458959 0.675536,-1.1756124 L 8.324557,4.660994 C 8.189672,4.4056043 7.930555,4.246689 7.648896,4.246689 c -0.503122,0 -0.870865,0.4905639 -0.745022,0.9937946 L 7.078641,5.9397349 C 7.166459,6.2907043 7.47289,6.535858 7.823788,6.535858 Z m 0,0"
     id="path40"
     inkscape:connector-curvature="0"
     style="fill:#20273a;stroke-width:0.03222763" />
</svg>
